<svg xmlns="http://www.w3.org/2000/svg" viewBox="0 0 926.08 317.52"><path d="M869.82,58.63c0,11.31-3.94,29-16.35,41.47a63.65,63.65,0,0,1-11.16,9c-5.82,3.8-10.06,6.45-7.68,12.78s9.53,4.26,16.36,2.7c2.2-.54,45-10.92,45.59-11A21.88,21.88,0,0,1,922,130l3.5,14.5a22,22,0,0,1-15.05,26.23c-.49.21-47.31,11.62-47.38,11.64-8.9,2.29-14.1,6.74-14.06,15.34,0,3.84,2.23,8,5,11.47,0,0,51,63.12,51.31,63.62a22,22,0,0,1-3.75,30l-11.56,9.44a21.83,21.83,0,0,1-30.07-2.3c-.42-.35-32.12-39.22-35.48-43.36s-7.59-10.39-13.46-10.36-10,6.31-13.39,10.44-34.88,43.17-35.26,43.52a21.86,21.86,0,0,1-30.08,2.47c-.1-.09-11.55-9.38-11.59-9.39a22,22,0,0,1-3.92-30c.25-.5,51-63.88,51-63.88,2.72-3.46,4.93-7.65,4.92-11.49,0-8.61-5.23-13-14.15-15.28-.08,0-46.94-11.2-47.42-11.4a22,22,0,0,1-15.2-26.15c0-.13,3.42-14.49,3.43-14.54a21.91,21.91,0,0,1,25.3-16.49c.53,0,43.43,10.21,45.63,10.73,6.84,1.52,14.07,3.44,16.36-2.78s-1.9-9-7.74-12.74a63.34,63.34,0,0,1-11.22-9c-12.47-12.41-16.52-30.08-16.54-41.39C751,26.46,777.93.09,810.3,0s59.44,26.17,59.51,58.63ZM83.18,254.9a21.42,21.42,0,0,1-17.77-11.21L2.45,131.8C-4,120,3.6,109.9,10.33,107.4l16.75-7.52A18.12,18.12,0,0,1,51,109.55l39.5,79.64h.59l39.55-79.64a18.12,18.12,0,0,1,23.9-9.67l16.75,7.52c6.73,2.5,14.33,12.55,7.88,24.4l-63,111.89a21.42,21.42,0,0,1-17.78,11.2H83.18Zm276.66,0a21.42,21.42,0,0,1-17.77-11.21l-63-111.89c-6.46-11.85,1.16-21.9,7.9-24.4l16.74-7.52a18.13,18.13,0,0,1,23.9,9.67l39.51,79.64h.59l39.54-79.64a18.12,18.12,0,0,1,23.9-9.67l16.75,7.52c6.73,2.5,14.34,12.55,7.89,24.4l-63,111.89a21.44,21.44,0,0,1-17.79,11.2H359.84Zm184.79-156a78.8,78.8,0,1,1-78.58,78.78,78.67,78.67,0,0,1,78.58-78.78ZM259.88,54a30.8,30.8,0,1,1-61.6,0v0a30.8,30.8,0,1,1,61.6,0ZM544.64,208.79a31.11,31.11,0,1,0-31-31.12h0a31.07,31.07,0,0,0,31,31.12ZM202.28,119.56a19,19,0,0,1,19-19h15.89a19,19,0,0,1,19,19V235.85a19,19,0,0,1-19,19.05H221.27a19,19,0,0,1-19-19V119.57Z" fill="#609" fill-rule="evenodd"/></svg>